<?xml version="1.0" standalone="no"?>
<!DOCTYPE svg PUBLIC "-//W3C//DTD SVG 20010904//EN"
 "http://www.w3.org/TR/2001/REC-SVG-20010904/DTD/svg10.dtd">
<svg version="1.0" xmlns="http://www.w3.org/2000/svg"
 width="512.000000pt" height="512.000000pt" viewBox="0 0 512.000000 512.000000"
 preserveAspectRatio="xMidYMid meet">

<g transform="translate(0.000000,512.000000) scale(0.100000,-0.100000)"
fill="#000000" stroke="none">
<path d="M2193 5099 c-105 -40 -184 -169 -169 -276 14 -101 71 -178 163 -220
l53 -24 0 -515 0 -514 -215 0 -215 0 -1 368 c0 254 -4 377 -12 399 -24 65 -73
119 -133 149 -57 28 -66 29 -224 32 l-165 4 -24 54 c-43 98 -130 153 -242 154
-79 0 -124 -17 -181 -68 -119 -108 -117 -291 5 -398 54 -47 102 -64 183 -64
105 1 194 59 235 155 l24 55 159 0 c181 0 216 -11 255 -80 20 -36 21 -50 21
-398 l0 -360 -46 -11 c-70 -18 -115 -44 -163 -96 -57 -62 -74 -104 -80 -205
l-6 -85 -421 -3 -421 -2 -12 42 c-18 60 -111 150 -173 167 -78 22 -166 11
-226 -28 -155 -99 -171 -311 -34 -431 139 -123 361 -68 427 104 l18 46 423 0
424 0 0 -220 0 -220 -93 0 -93 0 -23 55 c-75 180 -313 221 -444 75 -53 -58
-70 -103 -70 -180 -1 -114 55 -199 162 -248 45 -21 64 -24 120 -20 39 3 83 14
107 26 53 27 117 99 134 151 l13 41 94 0 93 0 0 -220 0 -220 -424 0 -423 0
-18 46 c-66 173 -288 227 -427 104 -60 -53 -91 -118 -92 -195 0 -79 18 -129
67 -183 63 -68 107 -87 202 -87 63 0 89 5 121 22 53 28 117 101 134 152 l13
41 421 -2 421 -3 6 -85 c6 -92 25 -142 80 -204 35 -41 140 -96 181 -96 l28 0
0 -369 c0 -366 0 -368 -23 -402 -12 -18 -38 -44 -56 -56 -32 -22 -44 -23 -196
-23 l-162 0 -13 41 c-33 100 -138 173 -250 173 -250 1 -365 -305 -177 -470 54
-47 102 -64 184 -64 107 0 190 57 240 167 l24 52 172 3 c145 2 178 6 210 22
53 26 96 72 123 131 24 50 24 53 24 418 l0 367 215 0 215 0 -2 -517 -3 -516
-30 -10 c-92 -30 -168 -125 -181 -223 -19 -155 114 -304 271 -304 143 0 265
122 265 263 0 33 -5 78 -12 99 -17 59 -88 132 -153 159 l-55 23 0 513 0 513
215 0 215 0 0 -184 0 -183 -43 -17 c-105 -40 -167 -132 -167 -248 0 -112 50
-197 143 -242 73 -36 123 -41 190 -22 250 73 270 420 30 512 l-43 17 0 183 0
184 215 0 215 0 0 -373 0 -373 26 -52 c26 -52 77 -101 130 -124 18 -7 98 -14
203 -18 l174 -5 14 -41 c33 -99 139 -174 246 -174 82 0 130 17 184 64 148 130
113 368 -67 450 -55 25 -158 27 -211 4 -71 -31 -159 -132 -159 -183 0 -13 -23
-15 -164 -15 -153 0 -165 1 -197 23 -18 12 -44 38 -56 56 -23 34 -23 36 -23
402 l0 369 28 0 c43 0 144 53 181 95 57 65 81 129 81 218 l0 77 424 0 423 0
18 -46 c22 -58 65 -107 124 -142 40 -23 57 -27 126 -27 63 0 89 5 121 22 49
26 108 89 130 140 22 49 22 156 2 204 -22 50 -83 116 -132 142 -58 31 -184 31
-242 0 -53 -28 -117 -100 -134 -152 l-13 -41 -424 0 -423 0 0 220 0 220 94 0
93 0 18 -46 c22 -58 65 -107 124 -142 40 -23 57 -27 126 -27 94 0 140 20 199
85 52 58 69 103 69 180 0 77 -17 122 -69 180 -59 65 -105 85 -199 85 -63 0
-89 -5 -121 -22 -53 -28 -106 -87 -130 -146 l-19 -47 -92 0 -93 0 0 220 0 220
424 0 423 0 17 -43 c23 -60 66 -108 127 -142 45 -25 65 -30 124 -30 59 0 79 5
125 30 95 52 161 173 146 269 -16 99 -87 191 -174 222 -55 20 -159 17 -209 -5
-57 -26 -120 -94 -140 -152 l-18 -49 -420 2 -420 3 -5 85 c-7 105 -32 162
-101 224 -46 42 -96 67 -161 80 l-28 6 0 361 c0 349 1 363 21 399 39 69 74 80
256 80 l160 0 11 -38 c29 -95 138 -172 246 -172 81 0 129 17 183 64 147 129
112 370 -65 447 -95 42 -237 15 -303 -57 -35 -38 -69 -95 -69 -115 0 -15 -20
-17 -167 -21 -143 -3 -175 -7 -213 -24 -65 -30 -105 -67 -134 -126 l-26 -52 0
-373 0 -373 -215 0 -215 0 0 184 0 183 44 17 c57 22 122 85 148 142 24 55 26
156 3 210 -37 89 -123 156 -216 169 -105 15 -221 -47 -272 -145 -26 -49 -28
-63 -25 -130 2 -47 11 -90 23 -115 26 -54 87 -110 141 -131 l44 -17 0 -183 0
-184 -215 0 -215 0 0 514 0 513 47 18 c147 56 217 233 147 373 -64 128 -206
183 -341 131z m-71 -2056 c24 -29 320 -780 316 -804 -4 -29 -29 -43 -60 -36
-22 6 -33 26 -78 137 l-52 130 -160 -2 -160 -3 -47 -116 c-51 -130 -64 -149
-95 -149 -28 0 -46 18 -46 47 0 31 306 794 322 805 21 13 44 9 60 -9z m1106 5
c19 -19 14 -55 -10 -72 -17 -12 -49 -16 -130 -16 l-108 0 0 -335 0 -335 118 0
c124 0 142 -6 142 -45 0 -44 -9 -45 -317 -45 -288 0 -292 0 -304 21 -8 16 -8
28 0 45 10 22 15 23 133 26 l123 3 3 333 2 332 -115 0 c-102 0 -117 2 -135 20
-24 24 -25 43 -4 64 13 14 55 16 303 16 210 0 290 -3 299 -12z"/>
<path d="M2028 2722 c-32 -80 -56 -147 -54 -149 2 -2 55 -2 119 -1 l115 3 -57
142 c-31 78 -59 144 -61 147 -3 3 -31 -61 -62 -142z"/>
</g>
</svg>
